<svg width="60" height="60" viewBox="0 0 60 60" fill="none" xmlns="http://www.w3.org/2000/svg">
<path d="M33.5957 6.09229L30.005 1.80011L26.3413 6.09229L30.0051 10.0753L33.5957 6.09229Z" fill="#37211A"/>
<path d="M33.5957 6.09229L30.005 1.80011L26.3413 6.09229L30.0051 10.0753L33.5957 6.09229Z" fill="#37211A"/>
<path d="M27.7499 12.7304L24.1047 8.92944L21.2173 12.6214L24.8797 16.4043L27.7499 12.7304Z" fill="#37211A"/>
<path d="M27.7499 12.7304L24.1047 8.92944L21.2173 12.6214L24.8797 16.4043L27.7499 12.7304Z" fill="#37211A"/>
<path d="M32.9233 18.769L29.9505 15.3538L27.1738 18.769L29.9505 22.151L32.9233 18.769Z" fill="#37211A"/>
<path d="M32.9233 18.769L29.9505 15.3538L27.1738 18.769L29.9505 22.151L32.9233 18.769Z" fill="#37211A"/>
<path d="M27.849 24.7966L24.7768 21.7898L22.3384 24.9575L25.3955 28.1957L27.849 24.7966Z" fill="#37211A"/>
<path d="M27.849 24.7966L24.7768 21.7898L22.3384 24.9575L25.3955 28.1957L27.849 24.7966Z" fill="#37211A"/>
<path opacity="0.85" d="M23.3598 31.0091L20.2402 28.0393L18.1934 31.0091L21.4752 34.0185L23.3598 31.0091Z" fill="#37211A"/>
<path opacity="0.85" d="M23.3598 31.0091L20.2402 28.0393L18.1934 31.0091L21.4752 34.0185L23.3598 31.0091Z" fill="#37211A"/>
<path d="M37.78 24.9575L35.3619 21.7898L32.2305 24.9575L34.7229 28.1353L37.78 24.9575Z" fill="#37211A"/>
<path d="M37.78 24.9575L35.3619 21.7898L32.2305 24.9575L34.7229 28.1353L37.78 24.9575Z" fill="#37211A"/>
<path d="M32.737 30.3177L30.0036 27.2354L27.2622 30.3177L30.0036 33.4167L32.737 30.3177Z" fill="#37211A"/>
<path opacity="0.85" d="M28.1367 35.8948L25.2395 32.8125L23.1309 35.616L26.0688 38.744L28.1367 35.8948Z" fill="#37211A"/>
<path opacity="0.85" d="M32.2891 40.7268L30.0066 37.9797L27.7627 40.7748L30.0066 43.5588L32.2891 40.7268Z" fill="#37211A"/>
<path opacity="0.7" d="M35.4648 45.5461L33.7715 42.9683L31.4575 45.6572L33.0018 48.282L35.4648 45.5461Z" fill="#37211A"/>
<path opacity="0.6" d="M37.5344 49.9705L36.5954 47.7354L34.0776 50.4765L34.8644 52.6383L37.5344 49.9705Z" fill="#37211A"/>
<path opacity="0.5" d="M38.2663 53.9543V51.9326L35.1558 54.6744L35.1558 56.4747L38.2663 53.9543Z" fill="#37211A"/>
<path opacity="0.5" d="M43.4206 50.4201V48.1741L39.6919 50.7567L39.7512 52.8577L43.4206 50.4201Z" fill="#37211A"/>
<path opacity="0.5" d="M48.4228 47.7229L48.3617 45.2136L44.6416 47.6247L44.7009 49.7257L48.4228 47.7229Z" fill="#37211A"/>
<path opacity="0.5" d="M53.4001 45.7682V43.1118L49.4468 44.8951L49.5163 47.2534L53.4001 45.7682Z" fill="#37211A"/>
<path opacity="0.6" d="M42.515 45.9186L41.5624 43.3792L38.105 46.3327L39.0448 48.6517L42.515 45.9186Z" fill="#37211A"/>
<path opacity="0.6" d="M47.4295 42.4656L46.4409 40.0071L42.9707 42.5465L43.7749 44.9943L47.4295 42.4656Z" fill="#37211A"/>
<path opacity="0.6" d="M52.7487 39.2253L52.0747 36.4756L48.1758 38.9341L48.9074 41.6185L52.7487 39.2253Z" fill="#37211A"/>
<path opacity="0.85" d="M36.9945 35.616L34.8458 32.8125L31.9468 35.8804L33.9623 38.7175L36.9945 35.616Z" fill="#37211A"/>
<path opacity="0.85" d="M47.7494 26.1644L45.8037 22.822L41.9468 26.0437L43.9329 29.2416L47.7494 26.1644Z" fill="#37211A"/>
<path opacity="0.85" d="M47.7494 26.1644L45.8037 22.822L41.9468 26.0437L43.9329 29.2416L47.7494 26.1644Z" fill="#37211A"/>
<path opacity="0.7" d="M50.8339 32.7392L49.3105 29.5176L45.4243 32.3223L46.9426 35.5518L50.8339 32.7392Z" fill="#37211A"/>
<path opacity="0.7" d="M45.1882 36.9224L43.6848 33.8506L40.2959 36.7366L41.8367 39.7221L45.1882 36.9224Z" fill="#37211A"/>
<path opacity="0.7" d="M40.3523 40.8953L38.6413 38.1411L35.4823 41.1393L37.102 43.9389L40.3523 40.8953Z" fill="#37211A"/>
<path opacity="0.85" d="M41.9044 31.0185L39.9127 28.0442L36.6982 31.0185L38.7425 34.0109L41.9044 31.0185Z" fill="#37211A"/>
<path opacity="0.85" d="M41.9044 31.0185L39.9127 28.0442L36.6982 31.0185L38.7425 34.0109L41.9044 31.0185Z" fill="#37211A"/>
<path d="M22.4727 19.6208L18.6409 16.1475L16.3696 19.3597L20.1254 22.8286L22.4727 19.6208Z" fill="#37211A"/>
<path d="M22.4727 19.6208L18.6409 16.1475L16.3696 19.3597L20.1254 22.8286L22.4727 19.6208Z" fill="#37211A"/>
<path opacity="0.85" d="M18.0963 26.115L14.1934 22.9028L12.3125 26.2655L16.1359 29.3085L18.0963 26.115Z" fill="#37211A"/>
<path opacity="0.85" d="M18.0963 26.115L14.1934 22.9028L12.3125 26.2655L16.1359 29.3085L18.0963 26.115Z" fill="#37211A"/>
<path opacity="0.7" d="M14.5206 32.4353L10.6145 29.5061L9.15186 32.7301L13.165 35.5488L14.5206 32.4353Z" fill="#37211A"/>
<path opacity="0.6" d="M11.9648 38.9407L7.93028 36.4846L7.17383 39.3031L11.2331 41.5806L11.9648 38.9407Z" fill="#37211A"/>
<path opacity="0.6" d="M17.1627 42.4517L13.5191 39.9956L12.6099 42.4517L16.1095 44.914L17.1627 42.4517Z" fill="#37211A"/>
<path opacity="0.6" d="M21.859 46.3748L18.5327 43.5588L17.5303 45.8984L21.0429 48.6226L21.859 46.3748Z" fill="#37211A"/>
<path opacity="0.6" d="M25.9675 50.3938L23.4573 47.8223L22.5332 49.9663L25.1825 52.605L25.9675 50.3938Z" fill="#37211A"/>
<path opacity="0.6" d="M29.0382 54.5596C28.8941 54.3322 27.301 52.1458 27.301 52.1458C27.301 52.1458 26.566 53.8251 26.377 54.2898C27.301 55.3887 28.3868 57.5033 28.7189 58.2C28.6568 57.7751 28.3739 56.1654 29.0382 54.5596Z" fill="#37211A"/>
<path opacity="0.6" d="M30.8098 54.7527C30.9539 54.5253 32.6248 52.1448 32.6248 52.1448C32.6248 52.1448 33.33 53.7484 33.519 54.213C32.595 55.312 31.7666 57.3998 31.4345 58.0964C31.4966 57.6715 31.474 56.3586 30.8098 54.7527Z" fill="#37211A"/>
<path opacity="0.5" d="M24.882 54.5729L21.9413 52.0967L21.7915 53.9157L24.882 56.4624V54.5729Z" fill="#37211A"/>
<path opacity="0.5" d="M20.4733 50.8994L16.7806 48.5054L16.6431 50.4414L20.3597 52.8593L20.4733 50.8994Z" fill="#37211A"/>
<path opacity="0.5" d="M15.5874 47.7191L11.8833 45.5244L11.6333 47.8128L15.4738 49.7964L15.5874 47.7191Z" fill="#37211A"/>
<path opacity="0.5" d="M10.611 44.9963L6.60012 43.1067L6.6001 45.8178L10.6678 47.3317L10.611 44.9963Z" fill="#37211A"/>
<path opacity="0.7" d="M19.8072 36.7296L16.4994 33.8997L14.9463 36.933L18.3058 39.7167L19.8072 36.7296Z" fill="#37211A"/>
<path opacity="0.7" d="M24.6189 41.1531L21.4588 38.1326L19.7334 40.9625L22.9945 43.9114L24.6189 41.1531Z" fill="#37211A"/>
<path opacity="0.7" d="M28.6434 45.7543L26.2683 42.907L24.4839 45.6526L26.9821 48.2583L28.6434 45.7543Z" fill="#37211A"/>
<path opacity="0.7" d="M31.6206 50.114L30.0425 47.511L28.3315 50.0397L30.0425 52.6407L31.6206 50.114Z" fill="#37211A"/>
<path d="M38.9344 12.659L36.0545 8.99069L32.3687 12.8776L35.2785 16.358L38.9344 12.659Z" fill="#37211A"/>
<path d="M38.9344 12.659L36.0545 8.99069L32.3687 12.8776L35.2785 16.358L38.9344 12.659Z" fill="#37211A"/>
<path d="M43.7434 19.3597L41.4004 16.1223L37.666 19.4959L39.9519 22.8218L43.7434 19.3597Z" fill="#37211A"/>
<path d="M43.7434 19.3597L41.4004 16.1223L37.666 19.4959L39.9519 22.8218L43.7434 19.3597Z" fill="#37211A"/>
</svg>
