<svg width="147" height="46" viewBox="0 0 147 46" fill="none" xmlns="http://www.w3.org/2000/svg">
<path d="M21.9196 3.50076L19.0041 4.6293e-05L16.0293 3.50076L19.0041 6.74929L21.9196 3.50076Z" fill="#37211A"/>
<path d="M21.9196 3.50076L19.0041 4.6293e-05L16.0293 3.50076L19.0041 6.74929L21.9196 3.50076Z" fill="#37211A"/>
<path d="M17.1729 8.91449L14.2131 5.81445L11.8687 8.82565L14.8424 11.911L17.1729 8.91449Z" fill="#37211A"/>
<path d="M17.1729 8.91449L14.2131 5.81445L11.8687 8.82565L14.8424 11.911L17.1729 8.91449Z" fill="#37211A"/>
<path d="M21.3735 13.8402L18.9596 11.0547L16.7051 13.8402L18.9596 16.5986L21.3735 13.8402Z" fill="#37211A"/>
<path d="M21.3735 13.8402L18.9596 11.0547L16.7051 13.8402L18.9596 16.5986L21.3735 13.8402Z" fill="#37211A"/>
<path d="M17.2532 18.7561L14.7587 16.3037L12.7788 18.8873L15.2611 21.5284L17.2532 18.7561Z" fill="#37211A"/>
<path d="M17.2532 18.7561L14.7587 16.3037L12.7788 18.8873L15.2611 21.5284L17.2532 18.7561Z" fill="#37211A"/>
<path opacity="0.85" d="M13.6086 23.8226L11.0756 21.4004L9.41363 23.8226L12.0783 26.2771L13.6086 23.8226Z" fill="#37211A"/>
<path opacity="0.85" d="M13.6086 23.8226L11.0756 21.4004L9.41363 23.8226L12.0783 26.2771L13.6086 23.8226Z" fill="#37211A"/>
<path d="M25.3171 18.8873L23.3536 16.3037L20.811 18.8873L22.8348 21.4792L25.3171 18.8873Z" fill="#37211A"/>
<path d="M25.3171 18.8873L23.3536 16.3037L20.811 18.8873L22.8348 21.4792L25.3171 18.8873Z" fill="#37211A"/>
<path d="M21.2222 23.2591L19.0028 20.7451L16.7769 23.2591L19.0028 25.7866L21.2222 23.2591Z" fill="#37211A"/>
<path opacity="0.85" d="M17.487 27.8079L15.1345 25.2939L13.4224 27.5805L15.8079 30.1317L17.487 27.8079Z" fill="#37211A"/>
<path opacity="0.85" d="M20.8584 31.7493L19.005 29.5088L17.1831 31.7884L19.005 34.0591L20.8584 31.7493Z" fill="#37211A"/>
<path opacity="0.7" d="M23.4369 35.6797L22.062 33.5771L20.1831 35.7702L21.437 37.911L23.4369 35.6797Z" fill="#37211A"/>
<path opacity="0.6" d="M25.1173 39.2878L24.3549 37.4648L22.3105 39.7005L22.9494 41.4637L25.1173 39.2878Z" fill="#37211A"/>
<path opacity="0.5" d="M25.7121 42.5375V40.8887L23.1865 43.1249L23.1865 44.5932L25.7121 42.5375Z" fill="#37211A"/>
<path opacity="0.5" d="M29.8967 39.6542V37.8223L26.8691 39.9287L26.9173 41.6423L29.8967 39.6542Z" fill="#37211A"/>
<path opacity="0.5" d="M33.9588 37.4548L33.9093 35.4082L30.8887 37.3747L30.9368 39.0883L33.9588 37.4548Z" fill="#37211A"/>
<path opacity="0.5" d="M38 35.8609V33.6943L34.79 35.1488L34.8465 37.0722L38 35.8609Z" fill="#37211A"/>
<path opacity="0.6" d="M29.1614 35.9833L28.3879 33.9121L25.5806 36.3211L26.3437 38.2124L29.1614 35.9833Z" fill="#37211A"/>
<path opacity="0.6" d="M33.1521 33.1673L32.3494 31.1621L29.5317 33.2333L30.1847 35.2297L33.1521 33.1673Z" fill="#37211A"/>
<path opacity="0.6" d="M37.4709 30.5239L36.9236 28.2812L33.7578 30.2864L34.3518 32.4758L37.4709 30.5239Z" fill="#37211A"/>
<path opacity="0.85" d="M24.6791 27.5805L22.9345 25.2939L20.5806 27.7961L22.2171 30.1101L24.6791 27.5805Z" fill="#37211A"/>
<path opacity="0.85" d="M33.4118 19.8715L31.8319 17.1455L28.7002 19.7731L30.3128 22.3813L33.4118 19.8715Z" fill="#37211A"/>
<path opacity="0.85" d="M33.4118 19.8715L31.8319 17.1455L28.7002 19.7731L30.3128 22.3813L33.4118 19.8715Z" fill="#37211A"/>
<path opacity="0.7" d="M35.9163 25.234L34.6793 22.6064L31.5239 24.894L32.7567 27.528L35.9163 25.234Z" fill="#37211A"/>
<path opacity="0.7" d="M31.3323 28.646L30.1115 26.1406L27.3599 28.4945L28.6109 30.9294L31.3323 28.646Z" fill="#37211A"/>
<path opacity="0.7" d="M27.4053 31.886L26.0161 29.6396L23.4511 32.0849L24.7662 34.3683L27.4053 31.886Z" fill="#37211A"/>
<path opacity="0.85" d="M28.6662 23.8311L27.049 21.4053L24.439 23.8311L26.0988 26.2717L28.6662 23.8311Z" fill="#37211A"/>
<path opacity="0.85" d="M28.6662 23.8311L27.049 21.4053L24.439 23.8311L26.0988 26.2717L28.6662 23.8311Z" fill="#37211A"/>
<path d="M12.8881 14.535L9.77685 11.7021L7.93262 14.322L10.9822 17.1513L12.8881 14.535Z" fill="#37211A"/>
<path d="M12.8881 14.535L9.77685 11.7021L7.93262 14.322L10.9822 17.1513L12.8881 14.535Z" fill="#37211A"/>
<path opacity="0.85" d="M9.33445 19.8318L6.1654 17.2119L4.63818 19.9545L7.74265 22.4364L9.33445 19.8318Z" fill="#37211A"/>
<path opacity="0.85" d="M9.33445 19.8318L6.1654 17.2119L4.63818 19.9545L7.74265 22.4364L9.33445 19.8318Z" fill="#37211A"/>
<path opacity="0.7" d="M6.4315 24.9858L3.25991 22.5967L2.07227 25.2262L5.33084 27.5251L6.4315 24.9858Z" fill="#37211A"/>
<path opacity="0.6" d="M4.35594 30.2923L1.08004 28.2891L0.46582 30.5878L3.76184 32.4454L4.35594 30.2923Z" fill="#37211A"/>
<path opacity="0.6" d="M8.57617 33.1555L5.61769 31.1523L4.87939 33.1555L7.72095 35.1638L8.57617 33.1555Z" fill="#37211A"/>
<path opacity="0.6" d="M12.3898 36.3553L9.68895 34.0586L8.875 35.9667L11.7272 38.1886L12.3898 36.3553Z" fill="#37211A"/>
<path opacity="0.6" d="M15.7256 39.6335L13.6873 37.5361L12.937 39.2848L15.0882 41.4369L15.7256 39.6335Z" fill="#37211A"/>
<path opacity="0.6" d="M18.2189 43.0312C18.1019 42.8458 16.8084 41.0625 16.8084 41.0625C16.8084 41.0625 16.2116 42.4322 16.0581 42.8112C16.8084 43.7075 17.69 45.4322 17.9597 46.0004C17.9093 45.6538 17.6796 44.341 18.2189 43.0312Z" fill="#37211A"/>
<path opacity="0.6" d="M19.6576 43.1886C19.7746 43.0031 21.1314 41.0615 21.1314 41.0615C21.1314 41.0615 21.7039 42.3694 21.8574 42.7484C21.1071 43.6447 20.4345 45.3475 20.1648 45.9157C20.2152 45.5691 20.197 44.4983 19.6576 43.1886Z" fill="#37211A"/>
<path opacity="0.5" d="M14.8443 43.0421L12.4566 41.0225L12.335 42.506L14.8443 44.5831V43.0421Z" fill="#37211A"/>
<path opacity="0.5" d="M11.2648 40.0453L8.26642 38.0928L8.15479 39.6718L11.1725 41.6438L11.2648 40.0453Z" fill="#37211A"/>
<path opacity="0.5" d="M7.2975 37.4521L4.28991 35.6621L4.08691 37.5285L7.20524 39.1463L7.2975 37.4521Z" fill="#37211A"/>
<path opacity="0.5" d="M3.25669 35.2306L1.76389e-05 33.6895L0 35.9006L3.30282 37.1354L3.25669 35.2306Z" fill="#37211A"/>
<path opacity="0.7" d="M10.7237 28.4888L8.03793 26.1807L6.77686 28.6546L9.50469 30.925L10.7237 28.4888Z" fill="#37211A"/>
<path opacity="0.7" d="M14.6309 32.0964L12.0651 29.6328L10.6641 31.9409L13.3119 34.346L14.6309 32.0964Z" fill="#37211A"/>
<path opacity="0.7" d="M17.8984 35.8496L15.9699 33.5273L14.521 35.7667L16.5494 37.8919L17.8984 35.8496Z" fill="#37211A"/>
<path opacity="0.7" d="M20.3156 39.4053L19.0343 37.2822L17.645 39.3446L19.0343 41.4661L20.3156 39.4053Z" fill="#37211A"/>
<path d="M26.2545 8.85628L23.9161 5.86443L20.9233 9.03459L23.2861 11.8733L26.2545 8.85628Z" fill="#37211A"/>
<path d="M26.2545 8.85628L23.9161 5.86443L20.9233 9.03459L23.2861 11.8733L26.2545 8.85628Z" fill="#37211A"/>
<path d="M30.1592 14.322L28.2568 11.6816L25.2246 14.4331L27.0807 17.1458L30.1592 14.322Z" fill="#37211A"/>
<path d="M30.1592 14.322L28.2568 11.6816L25.2246 14.4331L27.0807 17.1458L30.1592 14.322Z" fill="#37211A"/>
<path d="M50.624 32V30.752H51.44C51.696 30.752 51.912 30.72 52.088 30.656C52.28 30.592 52.432 30.456 52.544 30.248C52.656 30.04 52.712 29.736 52.712 29.336V17.552C52.712 17.136 52.656 16.824 52.544 16.616C52.432 16.408 52.288 16.272 52.112 16.208C51.936 16.144 51.744 16.112 51.536 16.112H50.624V14.864H63.032L63.176 19.256H61.592L61.472 18.104C61.44 17.688 61.352 17.352 61.208 17.096C61.064 16.824 60.872 16.624 60.632 16.496C60.408 16.368 60.144 16.304 59.84 16.304H56.288V22.88H61.592V24.296H56.288V29.24C56.288 29.656 56.336 29.976 56.432 30.2C56.544 30.424 56.696 30.576 56.888 30.656C57.08 30.72 57.304 30.752 57.56 30.752H58.832V32H50.624ZM64.3059 32V30.752H64.5699C64.8259 30.752 65.0739 30.712 65.3139 30.632C65.5539 30.552 65.7539 30.4 65.9139 30.176C66.0739 29.936 66.1539 29.592 66.1539 29.144V16.472C66.1539 16.04 66.0659 15.72 65.8899 15.512C65.7139 15.304 65.4979 15.168 65.2419 15.104C65.0019 15.04 64.7779 15.008 64.5699 15.008H64.3059V13.76H69.6099V29.144C69.6099 29.592 69.6819 29.936 69.8259 30.176C69.9859 30.4 70.1859 30.552 70.4259 30.632C70.6819 30.712 70.9299 30.752 71.1699 30.752H71.4339V32H64.3059ZM78.6363 32.24C76.8443 32.24 75.4283 31.688 74.3883 30.584C73.3643 29.48 72.8523 27.792 72.8523 25.52C72.8523 23.264 73.3483 21.584 74.3403 20.48C75.3483 19.376 76.8123 18.824 78.7323 18.824C80.5243 18.824 81.9323 19.376 82.9563 20.48C83.9963 21.584 84.5163 23.264 84.5163 25.52C84.5163 27.792 84.0203 29.48 83.0283 30.584C82.0363 31.688 80.5723 32.24 78.6363 32.24ZM78.7083 30.752C79.2843 30.752 79.7403 30.56 80.0763 30.176C80.4123 29.776 80.6443 29.184 80.7723 28.4C80.9163 27.616 80.9883 26.656 80.9883 25.52C80.9883 24.368 80.9083 23.408 80.7483 22.64C80.6043 21.872 80.3643 21.296 80.0283 20.912C79.7083 20.528 79.2603 20.336 78.6843 20.336C78.1243 20.336 77.6763 20.528 77.3403 20.912C77.0043 21.296 76.7563 21.872 76.5963 22.64C76.4523 23.408 76.3803 24.368 76.3803 25.52C76.3803 26.672 76.4523 27.64 76.5963 28.424C76.7563 29.192 77.0043 29.776 77.3403 30.176C77.6763 30.56 78.1323 30.752 78.7083 30.752ZM91.3861 32.24C90.1701 32.24 89.2501 31.856 88.6261 31.088C88.0181 30.32 87.7141 29.12 87.7141 27.488V22.064C87.7141 21.6 87.6661 21.248 87.5701 21.008C87.4741 20.768 87.3141 20.608 87.0901 20.528C86.8661 20.432 86.5781 20.384 86.2261 20.384H86.1541V19.136H91.1701V26.888C91.1701 27.608 91.2181 28.224 91.3141 28.736C91.4101 29.232 91.5781 29.616 91.8181 29.888C92.0581 30.144 92.3941 30.272 92.8261 30.272C93.3061 30.272 93.6901 30.12 93.9781 29.816C94.2821 29.512 94.4981 29.08 94.6261 28.52C94.7701 27.96 94.8421 27.312 94.8421 26.576V21.944C94.8421 21.464 94.7701 21.12 94.6261 20.912C94.4981 20.688 94.3141 20.544 94.0741 20.48C93.8501 20.416 93.5861 20.384 93.2821 20.384H93.2341V19.136H98.2981V29.24C98.2981 29.704 98.3621 30.048 98.4901 30.272C98.6181 30.48 98.7941 30.616 99.0181 30.68C99.2581 30.728 99.5141 30.752 99.7861 30.752H99.9541V32H95.4901L94.9861 30.272H94.8661C94.6581 30.656 94.4261 30.976 94.1701 31.232C93.9301 31.488 93.6581 31.696 93.3541 31.856C93.0661 32 92.7541 32.096 92.4181 32.144C92.0981 32.208 91.7541 32.24 91.3861 32.24ZM100.963 32V30.752H101.035C101.387 30.752 101.683 30.712 101.923 30.632C102.179 30.552 102.379 30.392 102.523 30.152C102.667 29.896 102.739 29.52 102.739 29.024V22.016C102.739 21.536 102.675 21.184 102.547 20.96C102.419 20.72 102.235 20.568 101.995 20.504C101.755 20.424 101.475 20.384 101.155 20.384H101.083V19.136H105.619L106.051 21.224H106.171C106.395 20.712 106.635 20.28 106.891 19.928C107.163 19.576 107.499 19.312 107.899 19.136C108.315 18.944 108.827 18.848 109.435 18.848C110.299 18.848 110.931 19.024 111.331 19.376C111.731 19.728 111.931 20.216 111.931 20.84C111.931 21.544 111.683 22.088 111.187 22.472C110.691 22.84 109.987 23.024 109.075 23.024C109.075 22.576 109.043 22.208 108.979 21.92C108.931 21.632 108.827 21.416 108.667 21.272C108.507 21.128 108.283 21.056 107.995 21.056C107.643 21.056 107.347 21.2 107.107 21.488C106.883 21.76 106.707 22.112 106.579 22.544C106.451 22.96 106.355 23.4 106.291 23.864C106.243 24.328 106.219 24.744 106.219 25.112V29.144C106.219 29.608 106.283 29.96 106.411 30.2C106.539 30.424 106.715 30.576 106.939 30.656C107.179 30.72 107.451 30.752 107.755 30.752H108.475V32H100.963ZM112.657 32V30.752H112.897C113.169 30.752 113.425 30.712 113.665 30.632C113.905 30.552 114.105 30.4 114.265 30.176C114.425 29.952 114.505 29.608 114.505 29.144V21.896C114.505 21.464 114.417 21.144 114.241 20.936C114.081 20.712 113.881 20.568 113.641 20.504C113.417 20.424 113.185 20.384 112.945 20.384H112.633V19.136H117.937V29.144C117.937 29.592 118.017 29.936 118.177 30.176C118.337 30.4 118.537 30.552 118.777 30.632C119.033 30.712 119.281 30.752 119.521 30.752H119.785V32H112.657ZM116.113 16.928C115.553 16.928 115.089 16.792 114.721 16.52C114.369 16.248 114.193 15.824 114.193 15.248C114.193 14.656 114.377 14.232 114.745 13.976C115.113 13.704 115.569 13.568 116.113 13.568C116.641 13.568 117.097 13.704 117.481 13.976C117.865 14.232 118.057 14.656 118.057 15.248C118.057 15.824 117.865 16.248 117.481 16.52C117.097 16.792 116.641 16.928 116.113 16.928ZM125.356 32.24C124.284 32.24 123.412 32.12 122.74 31.88C122.084 31.64 121.604 31.32 121.3 30.92C120.996 30.504 120.844 30.032 120.844 29.504C120.844 29.008 120.956 28.64 121.18 28.4C121.404 28.144 121.676 27.968 121.996 27.872C122.316 27.776 122.62 27.728 122.908 27.728C122.908 28.368 123.004 28.928 123.196 29.408C123.404 29.888 123.692 30.248 124.06 30.488C124.444 30.728 124.884 30.848 125.38 30.848C126.148 30.848 126.7 30.688 127.036 30.368C127.388 30.032 127.564 29.624 127.564 29.144C127.564 28.792 127.476 28.488 127.3 28.232C127.14 27.976 126.86 27.736 126.46 27.512C126.076 27.272 125.54 27.024 124.852 26.768C124.02 26.448 123.324 26.112 122.764 25.76C122.204 25.392 121.78 24.96 121.492 24.464C121.204 23.968 121.06 23.352 121.06 22.616C121.06 21.368 121.5 20.432 122.38 19.808C123.26 19.168 124.428 18.848 125.884 18.848C126.812 18.848 127.564 18.96 128.14 19.184C128.716 19.392 129.132 19.672 129.388 20.024C129.66 20.36 129.796 20.72 129.796 21.104C129.796 21.632 129.62 22.032 129.268 22.304C128.932 22.576 128.372 22.712 127.588 22.712C127.588 21.912 127.412 21.296 127.06 20.864C126.708 20.416 126.204 20.192 125.548 20.192C125.228 20.192 124.932 20.256 124.66 20.384C124.388 20.496 124.164 20.664 123.988 20.888C123.828 21.112 123.748 21.392 123.748 21.728C123.748 22.08 123.836 22.384 124.012 22.64C124.188 22.896 124.484 23.144 124.9 23.384C125.332 23.608 125.932 23.864 126.7 24.152C127.404 24.408 128.02 24.712 128.548 25.064C129.076 25.416 129.484 25.84 129.772 26.336C130.076 26.816 130.228 27.408 130.228 28.112C130.228 29.392 129.804 30.4 128.956 31.136C128.124 31.872 126.924 32.24 125.356 32.24ZM131.526 32V30.752H131.598C131.934 30.752 132.222 30.72 132.462 30.656C132.718 30.576 132.918 30.416 133.062 30.176C133.222 29.936 133.302 29.576 133.302 29.096V16.472C133.302 16.04 133.214 15.72 133.038 15.512C132.862 15.304 132.646 15.168 132.39 15.104C132.15 15.04 131.926 15.008 131.718 15.008H131.454V13.76H136.758V17.96C136.758 18.328 136.742 18.728 136.71 19.16C136.694 19.576 136.67 19.944 136.638 20.264C136.622 20.568 136.606 20.744 136.59 20.792H136.782C137.038 20.28 137.326 19.888 137.646 19.616C137.982 19.328 138.358 19.128 138.774 19.016C139.206 18.888 139.678 18.824 140.19 18.824C141.374 18.824 142.286 19.192 142.926 19.928C143.566 20.664 143.886 21.848 143.886 23.48V29.072C143.886 29.552 143.934 29.912 144.03 30.152C144.142 30.392 144.31 30.552 144.534 30.632C144.758 30.712 145.038 30.752 145.374 30.752H145.422V32H140.43V24.056C140.43 23.016 140.294 22.216 140.022 21.656C139.766 21.096 139.318 20.816 138.678 20.816C138.182 20.816 137.79 20.984 137.502 21.32C137.23 21.656 137.038 22.112 136.926 22.688C136.814 23.248 136.758 23.864 136.758 24.536L136.782 29.192C136.782 29.64 136.838 29.976 136.95 30.2C137.078 30.424 137.262 30.576 137.502 30.656C137.742 30.72 138.022 30.752 138.342 30.752H138.414V32H131.526Z" fill="#37211A"/>
</svg>
