<svg width="726" height="341" viewBox="0 0 726 341" fill="none" xmlns="http://www.w3.org/2000/svg">
<g clip-path="url(#clip0_3341_13729)">
<path d="M619.618 337.529H181.156C176.808 337.529 172.157 338.014 167.834 337.529C137.145 334.131 116.171 300.492 107.464 273.795C105.229 266.975 103.65 259.815 102.837 252.57C100.335 230.545 104.926 207.67 120.203 190.863C133.599 176.118 155.932 174.128 168.016 158.34C176.93 146.751 177.513 130.902 182.601 117.614C185.929 108.926 191.333 100.746 199.166 95.6981C205.785 91.4265 213.764 89.6548 221.646 89.1087C234.106 88.235 246.785 90.2494 258.346 94.9336C270.503 99.8727 282.708 102.081 295.909 102.275C311.029 102.482 325.322 100.006 339.859 96.2321C354.08 92.5673 369.152 91.2324 382.231 84.0726C400.703 73.9882 413.977 60.1662 435.764 57.1688C459.057 53.9529 485.009 62.035 500.882 79.7524C511.594 91.7178 516.123 107.263 512.747 123.063C510.658 132.771 505.764 143.523 513.33 152.176C518.322 157.915 526.434 159.772 534 160.33C554.427 161.884 572.304 165.998 587.059 181.397C601.632 196.627 602.847 211.371 603.758 231.358C604.086 238.493 603.223 245.568 601.827 252.546C601.487 254.306 601.086 256.065 600.685 257.813C600.43 258.881 600.187 259.924 599.92 260.992C597.734 269.693 593.909 278.795 593.848 287.847C593.738 304.072 608.421 312.312 615.04 325.43C615.586 326.571 619.557 337.529 619.618 337.529Z" fill="url(#paint0_linear_3341_13729)"/>
<path d="M280.183 271.611V171.095H236.694L179.688 252.571L164.774 273.892V305.286H241.236V334.86H280.171V305.286H298.825V271.623H280.183V271.611ZM243.98 271.611H205.75L218.356 252.571L243.98 213.859V271.611Z" fill="#884A39"/>
<path d="M374.193 122.371C326.842 122.371 310.24 157.855 310.24 206.517C310.24 223.895 312.329 239.574 317.114 252.57C325.846 276.319 343.601 291.124 374.193 291.124C404.772 291.124 422.54 276.319 431.272 252.57C436.056 239.561 438.145 223.895 438.145 206.517C438.145 157.855 421.52 122.371 374.193 122.371ZM374.193 254.73C369.906 254.73 366.323 253.978 363.348 252.57C350.268 246.454 348.471 227.984 348.471 206.517C348.471 181.057 351.203 158.765 374.205 158.765C397.182 158.765 399.915 181.057 399.915 206.517C399.915 227.997 398.105 246.442 385.05 252.57C382.038 253.978 378.48 254.73 374.193 254.73Z" fill="#884A39"/>
<path d="M537.657 335.758C547.906 335.758 558.144 335.758 568.394 335.758C568.88 332.736 567.35 329.787 564.726 328.537C562.455 327.457 559.711 327.809 557.67 329.435C558.278 327.955 557.828 326.256 556.602 325.333C555.266 324.314 553.298 324.448 552.048 325.685C551.234 322.457 548.878 319.885 545.878 319.084C541.883 318.016 537.316 320.212 535.337 324.532C536.114 328.27 536.879 332.02 537.657 335.758Z" fill="#537EC5"/>
<path d="M567.216 271.611V171.095H523.751L466.733 252.571L451.819 273.892V305.286H528.305V334.86H567.216V305.286H585.882V271.623H567.216V271.611ZM531.037 271.611H492.795L505.401 252.571L531.037 213.859V271.611Z" fill="#884A39"/>
<path d="M363.238 70.6028C364.052 70.4451 367.234 71.0518 367.853 71.5979C370.537 73.9522 375.443 79.7528 375.225 84.619C374.957 90.5896 372.686 91.5847 372.686 95.832C372.686 100.079 374.314 108.586 374.314 109.678C374.314 110.77 356.838 110.309 356.474 109.86C356.109 109.411 356.668 78.0903 357.737 75.0322C358.817 72.0105 359.789 71.2703 363.238 70.6028Z" fill="#DEC6A0"/>
<path d="M358.672 116.765C358.065 119.52 359.947 122.19 362.74 122.59C364.963 122.906 367.974 123.003 371.836 122.432C381.467 121.012 392.931 121.971 394.692 118.355C396.453 114.739 391.158 110.528 381.722 110.103C373.196 109.727 362.643 107.967 360.87 110.382C359.959 111.608 359.194 114.35 358.672 116.765Z" stroke="#D5BB95" stroke-width="0.8828" stroke-miterlimit="10"/>
<path d="M361.878 113.125C360.482 115.576 361.477 118.683 364.028 119.896C366.056 120.855 368.898 121.838 372.76 122.445C382.378 123.95 393.041 128.27 395.798 125.345C398.554 122.42 394.753 116.814 385.863 113.61C377.836 110.71 368.278 105.904 365.862 107.676C364.635 108.586 363.093 110.977 361.878 113.125Z" stroke="#D5BB95" stroke-width="0.8828" stroke-miterlimit="10"/>
<path d="M358.1 77.6533C356.995 74.9957 356.898 68.0786 356.715 65.2511C356.533 62.3023 356.618 59.2563 357.602 56.441C358.974 52.4849 361.804 49.2084 366.188 48.8322C367.427 48.723 368.714 48.8564 369.856 49.3783C370.973 49.9001 371.908 50.7981 372.467 51.9024C373.11 53.1645 373.256 54.6207 373.876 55.8949C374.422 57.0113 375.005 58.1156 375.394 59.317C375.734 60.3728 376.001 61.4649 376.62 62.3994C377.252 63.3702 378.187 64.1347 379.098 64.8264C380.446 65.8336 382.182 66.9865 381.976 68.916C381.879 69.8747 381.32 70.6999 381.138 71.6343C380.931 72.7143 381.308 73.7943 381.575 74.8258C382.061 76.6825 381.296 78.6848 379.996 80.044C378.806 81.2939 377.07 81.8643 375.369 81.8885C374.349 81.9007 373.317 81.9249 372.321 81.7308C371.143 81.5002 370.597 80.9663 369.844 80.0561C367.998 77.8354 366.14 75.6025 364.294 73.3817C363.844 72.8478 363.407 72.3138 362.958 71.7799C362.739 71.5251 362.788 71.5493 362.508 71.3673C362.035 71.0396 362.156 71.3066 361.634 71.5372C360.359 72.0954 359.169 76.7796 358.1 77.6533Z" fill="#37211A"/>
<path d="M368.716 65.6516H363.068V73.5881H368.716V65.6516Z" fill="#FFA095"/>
<path d="M368.642 68.1029C368.642 68.1029 372.71 68.467 373.257 67.1564C373.803 65.8458 374.07 58.8316 371.083 55.6643C368.095 52.497 362.752 53.2615 360.857 56.1619C358.95 59.0622 362.982 68.0544 365.338 68.1515C367.682 68.2485 368.642 68.1029 368.642 68.1029Z" fill="#FFA095"/>
<path d="M394.789 114.399C388.62 108.926 381.552 138.293 381.418 146.133C381.285 153.96 385.05 146.533 389.786 134.956C394.522 123.391 397.218 116.547 394.789 114.399Z" fill="#FFA095"/>
<path d="M383.738 147.856C383.738 147.856 384.187 149.094 385.462 150.926C386.725 152.758 387.26 152.625 387.15 153.123C387.029 153.608 380.106 150.89 380.106 150.89L381.503 146.994C381.503 146.994 383.774 147.747 383.738 147.856Z" fill="#3D1C14"/>
<path d="M394.717 120.382C386.641 118.719 395.178 147.698 398.979 154.542C402.781 161.399 402.319 153.086 400.643 140.696C398.979 128.306 397.899 121.037 394.717 120.382Z" fill="#FFA095"/>
<path d="M401.845 154.882C401.845 154.882 402.853 155.732 404.869 156.69C406.885 157.649 407.286 157.273 407.419 157.758C407.565 158.244 400.206 159.336 400.206 159.336L399.465 155.258C399.477 155.246 401.833 154.773 401.845 154.882Z" fill="#3D1C14"/>
<path d="M376.584 109.387H396.234L404.614 91.3904C404.905 90.7715 404.638 90.0313 404.006 89.74C403.387 89.4367 402.646 89.7158 402.355 90.3468L394.631 106.911H376.56C375.88 106.911 375.321 107.47 375.321 108.149C375.333 108.841 375.892 109.387 376.584 109.387Z" fill="#565588"/>
<path d="M364.696 69.9719C364.696 69.9719 359.996 69.9476 357.919 74.2556C355.211 79.8863 355.151 109.775 355.454 110.382C355.867 111.207 374.764 111.207 375.177 110.249C375.59 109.29 372.383 97.5674 373.416 93.5385C374.448 89.5096 375.942 86.1481 375.893 82.6289C375.869 79.7407 372.043 70.8092 364.696 69.9719Z" fill="#CF8774"/>
<path d="M375.176 110.249C375.176 110.249 393.489 114.933 396.586 119.277C399.695 123.622 402.901 151.423 402.901 151.423L397.631 152.564C394.218 145.429 390.077 128.791 388.316 128.172C386.555 127.553 369.249 123.974 369.249 123.974L368.97 113.913L375.176 110.249Z" fill="#502E25"/>
<path d="M375.285 109.775C382.632 108.841 395.408 108.186 396.586 112.688C398.529 120.115 385.523 146.157 385.523 146.157L381.078 144.603C382.523 132.298 386.081 122.384 385.523 121.559C384.976 120.733 372.419 126.109 361.805 124.872C351.19 123.634 355.939 110.613 355.939 110.613L375.285 109.775Z" fill="#5B3429"/>
<path d="M365.837 75.8088C364.671 75.6632 363.542 76.3063 362.91 77.3014C360.056 81.7308 350.753 96.7178 353.899 98.9992C357.591 101.681 365.047 87.9076 366.699 83.6603C368.059 80.1168 368.666 76.1607 365.837 75.8088Z" fill="#FFA095"/>
<path d="M354.871 95.7834C355.648 95.0068 356.801 94.7519 357.894 94.9704C363.311 96.0504 382.912 100.128 383.483 102.482C384.151 105.225 355.66 100.638 355.016 99.2784C354.53 98.2347 353.632 97.0333 354.871 95.7834Z" fill="#FFA095"/>
<path d="M380.714 101.839C381.017 100.152 383.883 101.014 384.843 101.342C386.409 101.876 387.842 103.696 387.636 104.315C387.43 104.946 383.932 103.502 383.774 103.611C383.604 103.72 385.244 104.582 384.989 105.14C384.733 105.71 382.426 104.849 381.649 104.145C380.859 103.453 380.519 102.895 380.714 101.839Z" fill="#FFA095"/>
<path d="M358.283 73.2364C358.283 73.2364 357.858 67.1081 360.651 65.1786C363.444 63.2491 369.966 60.3124 371.763 55.7981C371.763 55.7981 371.399 49.7547 366.674 50.1309C361.938 50.5071 357.967 57.1693 357.858 59.9119C357.748 62.6545 358.283 73.2364 358.283 73.2364Z" fill="#884A39"/>
<path d="M418.837 331.911H385.938L388.998 323.525L391.828 315.795L394.414 308.732L397.244 301.002L400.827 291.197C401.312 289.874 403.498 289.874 403.972 291.197L407.555 301.002L410.384 308.732L412.971 315.795L415.801 323.525L418.837 331.911Z" fill="#DDB5AB"/>
<path d="M425.418 335.685H379.354L379.33 331.583H425.442L425.418 335.685Z" fill="#DDB5AB"/>
<path d="M410.371 308.732H394.401L397.231 301.002H407.542L410.371 308.732Z" fill="#FFFDFF"/>
<path d="M415.776 323.525H388.997L391.827 315.795H412.946L415.776 323.525Z" fill="#FFFDFF"/>
<path d="M304.362 284.328H304.483C304.483 284.328 306.171 284.074 307.811 283.163L307.823 283.188V285.578C307.823 285.578 307.361 287.848 304.568 288.479C301.799 287.836 301.313 285.554 301.313 285.554V283.358L301.338 283.309C302.88 284.11 304.362 284.328 304.362 284.328Z" fill="#EFAEA6"/>
<path d="M304.484 284.328H304.362C304.362 284.328 302.88 284.11 301.35 283.321C299.881 282.593 298.387 281.367 298.083 279.365C298.083 279.365 296.383 278.625 296.407 277.229C296.432 275.834 297.926 276.21 297.926 276.21C297.926 276.21 296.699 271.817 299.006 268.589C301.326 265.337 304.289 266.356 304.289 266.356H304.532C304.532 266.356 307.52 265.349 309.827 268.589C312.159 271.817 310.908 276.21 310.908 276.21C310.908 276.21 312.39 275.834 312.426 277.229C312.45 278.625 310.762 279.365 310.762 279.365C310.483 281.234 309.159 282.423 307.811 283.163C306.172 284.074 304.484 284.328 304.484 284.328Z" fill="#EFAEA6"/>
<path d="M318.406 318.769L318.43 318.854C311.811 321.451 304.792 325.698 304.209 326.062C303.614 325.71 296.619 321.463 290 318.854L290.024 318.769V312.556V309H291.554H304.124H304.318H316.863H318.406V312.556V318.769Z" fill="#B17362"/>
<path d="M303.539 315.047C302.266 315.327 301.67 316.649 302.185 317.991C302.726 319.353 304.189 320.214 305.461 319.954C306.734 319.673 307.33 318.351 306.815 317.009C306.274 315.647 304.811 314.786 303.539 315.047Z" fill="#5B3429"/>
<path d="M290.384 319.108L290.359 319.193C289.108 318.708 287.87 318.271 286.692 317.931C283.704 315.516 279.636 311.997 279.174 310.492C278.798 309.303 280.401 305.832 282.441 302.046L282.465 302.058L289.145 305.82C288.246 307.446 287.469 309.024 287.615 309.424C287.93 310.346 290.347 312.895 290.347 312.895H290.396V319.108H290.384Z" fill="#EFAEA6"/>
<path d="M318.765 319.108V312.895H318.813C318.813 312.895 321.218 310.346 321.546 309.424C321.691 309.024 320.926 307.458 320.016 305.82L326.695 302.058L326.719 302.046C328.747 305.844 330.35 309.315 329.986 310.492C329.525 311.985 325.456 315.504 322.481 317.919C321.303 318.259 320.064 318.695 318.801 319.193L318.765 319.108Z" fill="#EFAEA6"/>
<path d="M304.483 309.339H291.914V309.096C292.059 306.633 291.731 301.451 291.731 301.451C291.731 301.451 290.31 303.708 289.132 305.82L282.453 302.058L282.429 302.046C284.505 298.138 287.056 293.867 288.392 291.403C291.027 286.537 301.313 285.566 301.313 285.566C301.313 285.566 301.787 287.848 304.568 288.491C307.361 287.848 307.823 285.59 307.823 285.59C307.823 285.59 318.121 286.549 320.757 291.415C322.092 293.879 324.643 298.15 326.719 302.058L326.695 302.07L320.016 305.832C318.85 303.708 317.417 301.463 317.417 301.463C317.417 301.463 317.089 306.657 317.222 309.109V309.351H304.677H304.483V309.339Z" fill="#CF8774"/>
<path d="M297.027 274.45C296.93 274.317 296.578 273.734 296.614 272.921C296.675 271.866 297.367 271.283 297.452 271.222C297.415 271.15 297.27 270.785 297.379 270.361C297.476 269.985 297.756 269.693 298.096 269.608C298.071 269.511 297.828 268.613 298.29 267.849C298.691 267.181 299.444 266.89 300.16 267.157C300.209 266.259 300.67 265.47 301.338 265.106C302.285 264.609 303.136 265.228 303.208 265.276C303.208 265.276 303.403 264.754 303.852 264.669C304.156 264.621 304.447 264.766 304.641 265.058C304.824 264.766 305.127 264.621 305.431 264.669C305.88 264.754 306.074 265.252 306.074 265.276C306.147 265.228 307.01 264.597 307.945 265.106C308.613 265.458 309.074 266.259 309.123 267.157C309.839 266.89 310.592 267.181 310.993 267.849C311.442 268.613 311.212 269.511 311.187 269.608C311.527 269.693 311.807 269.972 311.904 270.361C312.013 270.785 311.867 271.15 311.831 271.222C311.916 271.295 312.608 271.866 312.669 272.921C312.717 273.734 312.353 274.305 312.256 274.45C312.535 274.669 312.657 275.081 312.547 275.458C312.438 275.822 312.147 276.052 311.831 276.028C311.758 276.101 311.649 276.21 311.503 276.283C311.406 276.331 311.309 276.368 311.236 276.38C311.139 276.343 310.908 276.234 310.738 275.943C310.422 275.385 310.677 274.717 310.689 274.693C310.592 274.572 309.961 273.783 310.094 272.812C310.119 272.594 310.191 272.399 310.264 272.242C310.143 272.193 309.378 271.841 309.123 270.943C309.05 270.676 309.038 270.421 309.05 270.227C308.819 270.385 308.54 270.385 308.333 270.227C308.163 270.094 308.103 269.887 308.078 269.815C307.908 269.924 307.471 270.167 306.888 270.106C306.281 270.045 305.868 269.693 305.722 269.548C305.722 269.548 305.552 270.179 304.641 270.191H304.629H304.617C303.706 270.179 303.536 269.548 303.536 269.548C303.391 269.693 302.978 270.045 302.37 270.106C301.787 270.167 301.35 269.924 301.18 269.815C301.156 269.887 301.095 270.094 300.925 270.227C300.719 270.385 300.439 270.385 300.209 270.227C300.221 270.421 300.209 270.676 300.136 270.943C299.881 271.841 299.128 272.181 298.994 272.242C299.067 272.399 299.128 272.594 299.164 272.812C299.298 273.795 298.666 274.572 298.569 274.693C298.581 274.729 298.836 275.397 298.521 275.943C298.363 276.222 298.132 276.331 298.023 276.38C297.95 276.368 297.853 276.331 297.756 276.283C297.61 276.198 297.501 276.101 297.428 276.028C297.112 276.052 296.808 275.809 296.711 275.458C296.626 275.081 296.748 274.669 297.027 274.45Z" fill="#37211A"/>
<path d="M316.737 335.964C316.737 335.964 282.611 332.942 279.15 325.515C276.6 320.042 282.004 315.674 288.222 317.834C294.44 319.994 316.822 330.952 316.822 330.952L316.737 335.964Z" fill="#502E25"/>
<path d="M318.923 331.826V336.243C318.923 336.243 324.764 336.631 325.141 335.976C325.517 335.321 325.967 332.966 324.485 331.838C322.991 330.709 319.384 330.649 318.923 331.826Z" fill="#3D1C14"/>
<path d="M316.677 330.952L318.96 331.802V336.194L316.58 335.964L316.677 330.952Z" fill="#EFAEA6"/>
<path d="M292.411 335.964C292.411 335.964 326.537 332.942 329.998 325.515C332.548 320.042 327.144 315.674 320.926 317.834C314.708 319.994 292.326 330.952 292.326 330.952L292.411 335.964Z" fill="#5B3429"/>
<path d="M292.412 330.952L290.129 331.801V336.194L292.497 335.964L292.412 330.952Z" fill="#EFAEA6"/>
<path d="M290.165 331.826V336.243C290.165 336.243 284.324 336.631 283.947 335.976C283.571 335.321 283.121 332.966 284.603 331.838C286.085 330.709 289.704 330.649 290.165 331.826Z" fill="#3D1C14"/>
<path opacity="0.12" d="M651.255 335.709H191.298H170.106H101.356C100.057 335.709 99 336.765 99 338.063C99 339.362 100.057 340.417 101.356 340.417H170.106H191.298H651.255C652.555 340.417 653.611 339.362 653.611 338.063C653.611 336.765 652.555 335.709 651.255 335.709Z" fill="#37211A"/>
<path d="M610.657 301.852C617.434 299.158 615.053 324.169 612.928 331.146C610.803 338.124 609.746 333.671 609.03 321.79C608.325 309.898 607.997 302.908 610.657 301.852Z" fill="#B48B80"/>
<path d="M599.848 301.245C606.855 299.534 601.548 323.999 598.718 330.613C595.889 337.239 595.658 332.688 596.18 320.795C596.702 308.903 597.091 301.925 599.848 301.245Z" fill="#B48B80"/>
<path d="M609.552 271.805C612.115 271.077 614.738 272.691 615.272 275.288C615.697 277.363 616.232 282.521 616.183 286.198C616.062 295.287 616.438 303.697 613.147 305.553C609.844 307.422 605.569 302.677 604.634 293.843C603.784 285.846 601.513 276.028 603.687 274.22C604.78 273.31 607.318 272.448 609.552 271.805Z" fill="#DEC6A0"/>
<path d="M603.54 272.096C605.957 271.951 608.094 274.086 608.191 276.72C608.264 278.819 607.973 283.928 607.366 287.472C605.884 296.233 604.961 304.437 601.694 305.517C598.427 306.597 595.282 301.075 595.756 292.326C596.193 284.414 595.622 274.426 597.856 273.152C598.998 272.509 601.427 272.218 603.54 272.096Z" fill="#DEC6A0"/>
<path d="M595.233 264.318C595.233 264.318 595.488 299.898 595.658 303.078C595.828 306.257 595.488 328.889 595.488 328.889L600.431 328.792C600.431 328.792 608.908 280.312 608.386 272.4C607.876 264.488 595.233 264.318 595.233 264.318Z" fill="#502E25"/>
<path d="M617.445 275.943C617.445 275.943 616.304 298.636 616.073 302.532C615.842 306.427 614.373 328.902 614.373 328.902H609.357C609.357 328.902 606.102 308.126 605.653 305.007C605.046 300.796 602.01 279.317 601.779 267.279C601.548 255.253 617.445 275.943 617.445 275.943Z" fill="#5B3429"/>
<path d="M608.593 230.132C608.97 231.322 608.508 232.632 607.585 233.482C603.444 237.292 589.344 249.852 586.296 247C582.713 243.651 595.89 233.263 600.092 230.727C603.59 228.628 607.682 227.244 608.593 230.132Z" fill="#DEC6A0"/>
<path d="M590.255 245.375C590.328 244.319 589.793 243.324 588.955 242.681C584.863 239.465 569.937 227.936 567.933 229.029C565.602 230.291 586.357 247.899 587.705 247.498C588.761 247.183 590.158 247.062 590.255 245.375Z" fill="#EFAEA6"/>
<path d="M563.002 225.424C563.427 224.842 566.269 227.16 567.168 227.742C567.301 227.827 567.399 227.876 567.435 227.876C567.471 227.863 567.459 227.827 567.435 227.766C567.265 227.366 566.099 226.043 566.561 225.546C567.059 224.999 569.293 226.747 570.095 227.924C570.143 227.985 570.192 228.058 570.228 228.118C570.908 229.283 571.103 230.084 570.447 231.273C569.402 233.166 566.269 230.958 565.225 230.157C564.35 229.49 563.658 228.434 563.257 227.463C562.893 226.553 562.772 225.74 563.002 225.424Z" fill="#EFAEA6"/>
<path d="M600.297 229.368C600.297 229.368 588.542 238.312 587.449 238.421C586.356 238.53 574.405 231.092 574.405 231.092L571.309 235.06C571.309 235.06 584.352 248.226 587.218 248.396C590.084 248.566 597.771 243.931 597.771 243.931L600.297 229.368Z" fill="#B17362"/>
<path d="M598.488 205.183C598.1 205.365 597.735 205.607 597.432 205.911C597.237 206.117 597.055 206.348 596.958 206.615C596.849 206.906 596.849 207.209 596.861 207.513C596.909 208.471 597.152 210.279 597.954 210.91C598.318 210.522 599.363 210.595 599.848 210.607C600.796 210.619 602.01 210.813 602.447 211.784C603.042 213.095 602.18 214.163 602.714 214.915C603.601 216.141 605.24 212.245 606.091 212.512C606.928 212.791 607.669 213.787 606.528 215.583C605.617 217.014 607.111 218.07 608.289 218.604C608.835 218.859 609.467 219.138 610.074 219.247C610.96 219.405 611.774 218.568 611.932 217.694C612.017 217.197 611.932 216.687 612.066 216.201C612.308 215.34 613.195 214.818 613.571 214.005C613.851 213.422 613.827 212.743 613.802 212.1C613.79 211.711 613.766 211.323 613.608 210.971C613.401 210.522 613.001 210.207 612.612 209.903C612.005 209.43 611.386 208.957 610.778 208.483C610.572 208.326 610.378 208.168 610.207 207.974C610.001 207.719 609.867 207.416 609.697 207.124C608.92 205.838 607.293 205.134 605.823 205.45C604.864 205.656 603.917 206.263 602.969 205.996C602.459 205.862 602.059 205.498 601.597 205.243C600.674 204.734 599.484 204.734 598.488 205.183Z" fill="#37211A"/>
<path d="M598.123 210.789L598.062 210.862C598.075 210.874 598.099 210.886 598.123 210.898C598.123 210.898 595.706 221.31 598.597 223.167C601.475 225.024 603.807 223.446 603.807 223.446L604.28 227.815L611.166 225.121L610.425 219.454C610.425 219.454 610.45 219.417 610.51 219.357L610.425 219.344C610.425 219.344 604.96 218.119 606.564 215.607C607.693 213.811 606.952 212.816 606.126 212.537C605.288 212.258 603.637 216.165 602.75 214.939C602.216 214.187 603.078 213.119 602.483 211.809C601.645 210.012 598.123 210.789 598.123 210.789Z" fill="#EFAEA6"/>
<path d="M595.427 265.058L597.163 265.373C597.467 262.072 598.111 256.381 599.447 246.867C601.499 232.159 610.802 226.735 613.741 225.339C612.441 224.344 611.482 223.798 611.02 223.64C609.757 224.745 607.608 226.104 604.013 226.468V226.492C604.013 226.492 603.612 226.662 602.968 227.026C602.337 228.591 599.847 234.865 599.192 238.178C597.856 244.877 596.204 258.359 595.427 265.058Z" fill="white"/>
<path d="M593.326 258.723C593.326 262.704 593.593 265.907 595.002 268.735C595.294 266.126 597.504 246.673 599.18 238.178C599.836 234.865 602.325 228.591 602.957 227.026C601.682 227.766 599.471 229.283 597.807 231.819C595.318 235.606 593.326 252.376 593.326 258.723Z" fill="#CF8774"/>
<path d="M599.446 246.867C597.309 262.097 596.738 269.694 596.629 271.235C597.273 271.999 598.025 272.764 598.924 273.504C603.831 277.545 617.845 276.853 618.622 276.004C619.388 275.142 615.951 268.783 616.036 262.692C616.121 256.588 617.93 247.729 618.792 236.479C619.29 229.975 616.011 227.099 613.728 225.351C610.789 226.735 601.499 232.159 599.446 246.867Z" fill="#CF8774"/>
<path d="M615.745 229.174C616.838 229.781 617.397 231.043 617.324 232.293C616.948 237.911 615.369 256.721 611.203 256.745C606.297 256.782 608.689 240.181 610.001 235.46C611.07 231.528 613.086 227.718 615.745 229.174Z" fill="#DEC6A0"/>
<path d="M611.786 252.862C610.985 252.17 609.867 252.001 608.847 252.267C603.807 253.59 585.615 258.554 585.275 260.799C584.874 263.42 611.446 257.473 611.944 256.163C612.333 255.144 613.074 253.966 611.786 252.862Z" fill="#DEC6A0"/>
<path d="M617.7 229.235C616.474 227.924 614.434 227.633 612.891 228.543C611.483 229.38 609.879 231.286 609.102 235.557C607.56 244.088 607.778 250.908 607.268 251.369C606.758 251.83 589.72 257.437 589.72 257.437L590.922 262.17C590.922 262.17 611.446 260.993 613.802 257.158C616.158 253.323 617.87 243.979 618.441 238.081C618.878 233.616 619.255 230.885 617.7 229.235Z" fill="#B17362"/>
<path d="M595.67 330.358C595.67 330.358 594.675 331.705 592.404 333.464C590.133 335.224 589.525 334.86 589.477 335.503C589.428 336.158 598.998 335.503 598.998 335.503V330.163C598.998 330.176 595.67 330.224 595.67 330.358Z" fill="#3D1C14"/>
<path d="M613.232 329.933C613.232 329.933 613.086 331.304 614.046 332.943C615.394 335.26 615.394 334.787 615.078 335.625C614.762 336.462 609.285 335.758 609.285 335.758L609.771 329.872C609.771 329.885 613.305 329.751 613.232 329.933Z" fill="#3D1C14"/>
<path d="M590.534 255.944L587.522 243.712L570.338 242.147L574.564 257.813L591.749 260.932L590.534 255.944ZM579.118 251.333C578.875 250.508 579.155 249.719 579.726 249.549C580.296 249.391 580.952 249.913 581.195 250.738C581.438 251.564 581.159 252.352 580.588 252.522C580.017 252.692 579.361 252.17 579.118 251.333Z" fill="#B17362"/>
<path d="M579.726 249.549C579.155 249.719 578.888 250.52 579.119 251.333C579.362 252.158 580.018 252.68 580.588 252.522C581.159 252.352 581.426 251.551 581.196 250.738C580.953 249.913 580.297 249.391 579.726 249.549Z" fill="#5B3429"/>
<path d="M590.534 255.944L591.761 260.956L601.452 257.316L590.534 255.944Z" fill="#CF8774"/>
<path d="M591.773 260.944L574.601 257.825V258.638L591.773 261.721C591.773 261.721 591.761 260.932 591.773 260.944V261.721L601.464 258.092V257.316" fill="#5B3429"/>
<path d="M588.761 261.32C588.639 261.296 588.518 261.272 588.409 261.248C588.251 261.211 588.081 261.187 587.923 261.151C587.765 261.114 587.595 261.126 587.461 261.029C587.413 260.993 587.364 260.956 587.328 260.932C587.279 260.896 587.219 260.884 587.158 260.859C586.915 260.787 586.636 260.787 586.453 260.592C586.259 260.374 586.223 260.071 586.101 259.804C586.089 259.779 586.077 259.767 586.077 259.743C585.858 259.306 585.446 258.918 585.008 258.699C584.438 258.42 583.563 258.566 583.065 258.942C582.652 259.245 582.713 259.67 582.871 260.095C583.077 260.641 583.393 261.151 583.879 261.478C584.34 261.794 584.887 261.939 585.421 262.024C585.725 262.073 586.041 262.097 586.344 262.073C586.648 262.061 586.951 262 587.255 261.952C587.534 261.903 587.814 261.83 588.081 261.721C588.287 261.636 588.482 261.527 588.664 261.393C588.7 261.381 588.737 261.345 588.761 261.32Z" fill="#EFAEA6"/>
<path d="M109 280.882C115.862 281.294 118.193 288.102 118.752 290.214L126.354 297.81V273.431C120.889 267.994 125.176 259.839 125.176 259.839C132.123 264.778 128.419 271.38 127.132 273.273V283.139L133.896 276.38C134.503 268.71 143.454 266.671 143.454 266.671C144.195 275.154 136.774 276.622 134.491 276.877L127.18 284.183L127.12 284.122V322.008H126.342V298.793L126.282 298.854L118.291 290.869C108.879 290.93 109 280.882 109 280.882Z" fill="#E7B6A8"/>
<path d="M122.954 336.097H131.078C133.276 336.097 135.049 334.326 135.049 332.129V319.873H118.982V332.129C118.982 334.314 120.756 336.097 122.954 336.097Z" fill="#9C5D4C"/>
<path d="M148.166 307.276L144.134 310.929V307.021C147.194 305.504 153.861 300.177 150.376 289.486C150.376 289.486 138.244 294.134 142.579 307.033V312.676L139.227 308.938C138.79 306.038 136.033 298.757 125.856 298.988C125.856 298.988 126.67 310.128 138.207 310.128L142.579 314.994V322.457H144.134V313.028L149.162 308.477C159.399 309.169 160.917 299.303 160.917 299.303C151.797 298.381 148.785 304.679 148.166 307.276Z" fill="#AD6A57"/>
<path d="M150.959 336.182H135.924L132.815 318.829H154.068L150.959 336.182Z" fill="#884A39"/>
<path d="M639.828 272.8C639.05 269.087 638.237 265.24 638.091 261.599L638.067 260.956L637.617 261.417C637.532 261.502 635.626 263.517 635.626 266.465C635.626 267.266 635.674 267.982 635.723 268.674C635.844 270.409 635.966 271.914 635.091 273.88C633.853 276.695 633.039 279.147 634.678 282.994L635.152 284.11C636.391 286.974 636.913 288.163 636.439 290.469C635.893 293.114 637.678 297.119 640.811 298.417C640.69 303.636 640.544 307.98 640.544 308.065L641.091 308.089C641.103 307.895 641.783 288.224 641.37 282.12C641.188 279.244 640.532 276.113 639.828 272.8Z" fill="#B5887B"/>
<path d="M624.891 274.353L624.611 274.135L624.478 274.463C624.417 274.596 623.154 277.666 625.158 280.13C626.008 281.173 626.178 282.496 626.384 284.025C626.615 285.76 626.87 287.726 628.267 289.571C629.408 291.076 630.623 291.901 631.594 292.568C632.845 293.418 633.744 294.037 633.962 295.566C633.999 295.845 634.035 296.1 634.06 296.342C634.363 298.757 634.533 300.104 638.067 301.306C639.087 305.286 639.561 308.053 639.573 308.138L640.107 308.053C640.071 307.798 635.796 282.909 624.891 274.353Z" fill="#B5887B"/>
<path d="M649.095 281.27L649.01 280.882L648.682 281.1C640.278 286.501 641.651 306.973 641.711 307.834L641.978 307.81L642.258 307.786C642.258 307.725 642.124 305.832 642.161 303.077C642.428 302.677 643.448 301.111 644.225 299.898C644.747 299.073 644.614 298.357 644.456 297.592C644.322 296.913 644.164 296.136 644.395 295.056C644.662 293.782 645.087 293.284 645.573 292.702C645.962 292.228 646.411 291.694 646.848 290.687C647.298 289.644 647.286 288.685 647.286 287.848C647.273 286.84 647.273 285.979 648.002 285.141C649.532 283.418 649.107 281.355 649.095 281.27Z" fill="#B5887B"/>
<path d="M645.876 335.721H636.16L633.477 307.252H648.56L645.876 335.721Z" fill="#9C5D4C"/>
<g opacity="0.3">
<path d="M490.721 40.3831L490.798 40.101M505.092 29.5877C504.989 27.844 504.489 26.1644 503.655 24.6643L505.079 23.8694C504.361 22.5873 503.437 21.4206 502.321 20.4334L501.23 21.6514C499.972 20.5359 498.458 19.6769 496.726 19.1769L497.175 17.6127H497.15C495.956 17.2794 494.75 17.1127 493.557 17.1127C493.3 17.1127 493.044 17.1255 492.787 17.1383L492.89 18.7666C491.145 18.8692 489.464 19.3692 487.963 20.2026L487.167 18.7794C485.884 19.4974 484.717 20.4205 483.729 21.536L484.948 22.6258C483.831 23.8822 482.959 25.3951 482.471 27.1132L480.906 26.6644L480.893 26.6901C480.559 27.8824 480.393 29.0876 480.393 30.28C480.393 30.5364 480.405 30.7928 480.418 31.0364L482.048 30.9467C482.15 32.6904 482.651 34.3699 483.485 35.87L482.061 36.6649C482.779 37.947 483.703 39.1138 484.819 40.101L485.91 38.883C487.167 39.9984 488.681 40.8703 490.401 41.3575L489.952 42.9217L489.99 42.9345C491.183 43.2678 492.389 43.4345 493.583 43.4345C493.852 43.4345 494.109 43.4217 494.378 43.4089L494.276 41.7806C496.021 41.678 497.701 41.1652 499.203 40.3318L499.998 41.7549C501.281 41.0369 502.449 40.1138 503.437 38.9984L502.218 37.9086C503.334 36.6521 504.194 35.1392 504.694 33.4084L506.26 33.8571V33.8443C506.593 32.6519 506.76 31.4467 506.76 30.2544C506.76 29.9979 506.747 29.7287 506.734 29.4723L505.092 29.5877ZM500.293 32.1775C499.421 35.2546 496.624 37.2547 493.583 37.2547C492.954 37.2547 492.312 37.165 491.684 36.9855C488.604 36.1136 486.603 33.3186 486.603 30.28C486.603 29.6518 486.693 29.0107 486.872 28.3825C487.745 25.3054 490.542 23.3053 493.583 23.3053C494.211 23.3053 494.853 23.395 495.482 23.5745C498.561 24.4464 500.563 27.2414 500.563 30.28C500.563 30.9082 500.473 31.5365 500.293 32.1775Z" stroke="#884A39" stroke-width="0.5407" stroke-miterlimit="10"/>
<path d="M180.472 59.6279L180.524 59.4612M189.043 53.1916C188.979 52.1531 188.684 51.1531 188.184 50.2556L189.03 49.7812C188.607 49.012 188.055 48.3196 187.388 47.7298L186.734 48.4606C185.99 47.7939 185.079 47.2811 184.052 46.9862L184.322 46.0503H184.309C183.59 45.8451 182.872 45.7554 182.166 45.7554C182.012 45.7554 181.858 45.7554 181.704 45.7682L181.755 46.7426C180.716 46.8067 179.715 47.1016 178.817 47.6016L178.342 46.7554C177.573 47.1785 176.88 47.7298 176.289 48.3965L177.021 49.0504C176.354 49.794 175.84 50.7043 175.545 51.73L174.609 51.4608V51.4736C174.403 52.1916 174.313 52.9096 174.313 53.6147C174.313 53.7686 174.313 53.9225 174.326 54.0635L175.301 54.0122C175.366 55.0507 175.661 56.0508 176.161 56.9482L175.314 57.4226C175.738 58.1919 176.289 58.8842 176.957 59.474L177.611 58.7432C178.355 59.4099 179.266 59.9227 180.293 60.2176L180.023 61.1536L180.049 61.1664C180.767 61.3715 181.486 61.4613 182.192 61.4613C182.346 61.4613 182.512 61.4613 182.666 61.4485L182.602 60.4741C183.642 60.41 184.642 60.1151 185.54 59.615L186.015 60.4612C186.785 60.0381 187.478 59.474 188.068 58.8201L187.337 58.1791C188.004 57.4355 188.517 56.5251 188.812 55.4995L189.749 55.7687C189.954 55.0507 190.044 54.3327 190.044 53.6276C190.044 53.4737 190.044 53.3199 190.031 53.166L189.043 53.1916ZM186.182 54.743C185.669 56.5764 184.001 57.7688 182.179 57.7688C181.807 57.7688 181.422 57.7175 181.05 57.6149C179.215 57.1021 178.022 55.4354 178.022 53.6147C178.022 53.2429 178.073 52.8583 178.176 52.4865C178.689 50.6531 180.357 49.4607 182.179 49.4607C182.551 49.4607 182.936 49.512 183.308 49.6146C185.143 50.1274 186.336 51.7941 186.336 53.6147C186.336 53.9737 186.285 54.3584 186.182 54.743Z" stroke="#884A39" stroke-width="0.3222" stroke-miterlimit="10"/>
<path d="M114.316 156.389L114.393 156.107M128.699 145.594C128.597 143.85 128.096 142.17 127.262 140.67L128.687 139.875C127.968 138.593 127.044 137.427 125.928 136.439L124.837 137.657C123.58 136.542 122.066 135.683 120.334 135.183L120.783 133.619H120.757C119.564 133.285 118.358 133.119 117.164 133.119C116.908 133.119 116.651 133.131 116.395 133.144L116.497 134.773C114.752 134.875 113.071 135.375 111.57 136.209L110.775 134.785C109.492 135.503 108.324 136.427 107.336 137.542L108.555 138.632C107.439 139.888 106.566 141.401 106.079 143.119L104.513 142.67L104.5 142.696C104.167 143.888 104 145.094 104 146.286C104 146.542 104.013 146.799 104.026 147.042L105.655 146.953C105.758 148.696 106.258 150.376 107.092 151.876L105.668 152.671C106.387 153.953 107.31 155.12 108.427 156.107L109.517 154.889C110.775 156.004 112.289 156.876 114.008 157.363L113.559 158.928L113.597 158.94C114.791 159.274 115.997 159.44 117.19 159.44C117.46 159.44 117.716 159.428 117.986 159.415L117.883 157.787C119.628 157.684 121.309 157.171 122.81 156.338L123.606 157.761C124.889 157.043 126.056 156.12 127.044 155.004L125.825 153.915C126.942 152.658 127.801 151.145 128.302 149.414L129.867 149.863V149.85C130.201 148.658 130.367 147.453 130.367 146.26C130.367 146.004 130.355 145.735 130.342 145.478L128.699 145.594ZM123.888 148.196C123.015 151.273 120.218 153.274 117.177 153.274C116.549 153.274 115.907 153.184 115.278 153.004C112.199 152.132 110.197 149.337 110.197 146.299C110.197 145.671 110.287 145.03 110.467 144.401C111.339 141.324 114.136 139.324 117.177 139.324C117.806 139.324 118.448 139.414 119.076 139.593C122.156 140.465 124.157 143.26 124.157 146.299C124.157 146.914 124.067 147.555 123.888 148.196Z" stroke="#884A39" stroke-width="0.5407" stroke-miterlimit="10"/>
<path d="M408.463 34.9471L408.502 34.806M415.854 29.3955C415.803 28.498 415.546 27.639 415.11 26.8698L415.841 26.4595C415.469 25.8056 414.994 25.203 414.417 24.6902L413.852 25.3184C413.211 24.7414 412.428 24.3055 411.543 24.0491L411.774 23.2414H411.761C411.145 23.0619 410.529 22.9849 409.913 22.9849C409.785 22.9849 409.644 22.9849 409.515 22.9978L409.567 23.8311C408.669 23.8824 407.809 24.1389 407.039 24.5748L406.629 23.844C405.974 24.2158 405.371 24.6902 404.858 25.2543L405.487 25.8184C404.909 26.4595 404.473 27.2416 404.216 28.1262L403.408 27.8954V27.9083C403.228 28.5237 403.151 29.1391 403.151 29.7545C403.151 29.8827 403.151 30.0109 403.164 30.152L403.998 30.1007C404.05 30.9982 404.306 31.8572 404.73 32.6265L403.998 33.0367C404.37 33.7034 404.845 34.2932 405.41 34.806L405.974 34.1778C406.616 34.7548 407.398 35.2035 408.284 35.4471L408.053 36.2548H408.078C408.694 36.4343 409.31 36.5113 409.926 36.5113C410.067 36.5113 410.196 36.5113 410.337 36.4984L410.285 35.6651C411.183 35.6138 412.043 35.3574 412.813 34.9214L413.224 35.6522C413.878 35.2804 414.481 34.806 414.994 34.2291L414.366 33.665C414.943 33.0239 415.379 32.2418 415.636 31.3572L416.444 31.5879C416.624 30.9725 416.701 30.3571 416.701 29.7417C416.701 29.6007 416.701 29.4724 416.688 29.3442L415.854 29.3955ZM413.39 30.7289C412.941 32.3059 411.504 33.3444 409.939 33.3444C409.618 33.3444 409.285 33.306 408.964 33.2034C407.386 32.7547 406.346 31.3187 406.346 29.7545C406.346 29.434 406.385 29.1006 406.487 28.7801C406.936 27.2031 408.374 26.1646 409.939 26.1646C410.26 26.1646 410.593 26.2031 410.914 26.3056C412.492 26.7544 413.532 28.1903 413.532 29.7545C413.532 30.075 413.48 30.3956 413.39 30.7289Z" stroke="#884A39" stroke-width="0.5407" stroke-miterlimit="10"/>
<path d="M247.68 49.3066L247.719 49.1656M255.071 43.755C255.019 42.8576 254.763 41.9985 254.327 41.2293L255.058 40.819C254.686 40.1651 254.211 39.5625 253.634 39.0497L253.069 39.6779C252.428 39.101 251.645 38.665 250.76 38.4086L250.99 37.6009H250.978C250.362 37.4214 249.746 37.3445 249.13 37.3445C249.002 37.3445 248.861 37.3445 248.732 37.3573L248.784 38.1907C247.885 38.242 247.026 38.4984 246.256 38.9343L245.845 38.2035C245.191 38.5753 244.588 39.0497 244.075 39.6138L244.703 40.1779C244.126 40.819 243.69 41.6011 243.433 42.4857L242.625 42.255V42.2678C242.445 42.8832 242.368 43.4986 242.368 44.114C242.368 44.2422 242.368 44.3705 242.381 44.5115L243.215 44.4602C243.266 45.3577 243.523 46.2167 243.946 46.986L243.215 47.3962C243.587 48.0629 244.062 48.6527 244.626 49.1656L245.191 48.5373C245.832 49.1143 246.615 49.563 247.501 49.8066L247.27 50.6144H247.295C247.911 50.7939 248.527 50.8708 249.143 50.8708C249.284 50.8708 249.412 50.8708 249.553 50.858L249.502 50.0246C250.4 49.9733 251.26 49.7169 252.03 49.281L252.44 50.0118C253.095 49.6399 253.698 49.1656 254.211 48.5886L253.582 48.0245C254.16 47.3834 254.596 46.6013 254.853 45.7167L255.661 45.9475C255.841 45.332 255.918 44.7166 255.918 44.1012C255.918 43.9602 255.918 43.832 255.905 43.7038L255.071 43.755ZM252.607 45.0884C252.158 46.6654 250.721 47.704 249.156 47.704C248.835 47.704 248.501 47.6655 248.181 47.5629C246.602 47.1142 245.563 45.6782 245.563 44.114C245.563 43.7935 245.602 43.4602 245.704 43.1396C246.153 41.5626 247.59 40.5241 249.156 40.5241C249.476 40.5241 249.81 40.5626 250.131 40.6651C251.709 41.1139 252.748 42.5499 252.748 44.114C252.735 44.4346 252.697 44.7551 252.607 45.0884Z" stroke="#884A39" stroke-width="0.5407" stroke-miterlimit="10"/>
<path d="M542.239 127.849L542.277 127.734M548.321 123.285C548.282 122.541 548.064 121.836 547.705 121.208L548.308 120.874C548 120.336 547.615 119.836 547.14 119.426L546.678 119.938C546.152 119.464 545.511 119.105 544.779 118.9L544.972 118.233H544.959C544.459 118.092 543.945 118.015 543.445 118.015C543.329 118.015 543.227 118.015 543.124 118.028L543.163 118.72C542.419 118.759 541.713 118.977 541.084 119.323L540.738 118.708C540.199 119.015 539.698 119.4 539.288 119.874L539.801 120.336C539.326 120.862 538.967 121.503 538.749 122.233L538.082 122.041V122.054C537.941 122.554 537.864 123.067 537.876 123.567C537.876 123.669 537.876 123.785 537.889 123.887L538.582 123.849C538.621 124.592 538.839 125.298 539.185 125.926L538.582 126.259C538.89 126.798 539.275 127.298 539.75 127.708L540.212 127.195C540.738 127.67 541.379 128.029 542.111 128.247L541.918 128.913H541.931C542.431 129.054 542.945 129.131 543.445 129.118C543.56 129.118 543.663 129.118 543.779 129.106L543.74 128.413C544.484 128.362 545.19 128.157 545.819 127.798L546.152 128.4C546.691 128.093 547.192 127.708 547.602 127.234L547.089 126.772C547.564 126.246 547.923 125.605 548.128 124.875L548.795 125.067C548.937 124.567 549.001 124.054 549.001 123.554C549.001 123.439 549.001 123.336 548.988 123.221L548.321 123.285ZM546.281 124.375C545.909 125.669 544.728 126.516 543.445 126.516C543.176 126.516 542.906 126.477 542.637 126.4C541.341 126.028 540.494 124.849 540.494 123.567C540.494 123.298 540.532 123.028 540.609 122.759C540.981 121.464 542.162 120.618 543.445 120.618C543.714 120.618 543.984 120.656 544.253 120.733C545.549 121.105 546.396 122.285 546.396 123.567C546.396 123.836 546.358 124.105 546.281 124.375Z" stroke="#884A39" stroke-width="0.5407" stroke-miterlimit="10"/>
<path d="M641.882 173.146L641.92 173.031M647.964 168.582C647.925 167.838 647.707 167.133 647.348 166.505L647.951 166.171C647.643 165.633 647.258 165.133 646.783 164.722L646.321 165.235C645.795 164.761 645.154 164.402 644.422 164.197L644.615 163.53H644.602C644.102 163.389 643.588 163.325 643.088 163.325C642.972 163.325 642.87 163.325 642.767 163.338L642.806 164.03C642.061 164.069 641.356 164.287 640.727 164.633L640.394 164.03C639.855 164.338 639.354 164.722 638.944 165.197L639.457 165.658C638.982 166.184 638.623 166.825 638.405 167.556L637.738 167.364V167.376C637.596 167.876 637.532 168.389 637.532 168.889C637.532 168.992 637.532 169.107 637.545 169.21L638.238 169.171C638.276 169.915 638.495 170.62 638.841 171.248L638.238 171.582C638.546 172.12 638.931 172.62 639.406 173.031L639.867 172.518C640.394 172.992 641.035 173.351 641.766 173.569L641.574 174.236H641.587C642.087 174.377 642.6 174.441 643.101 174.441C643.216 174.441 643.319 174.441 643.434 174.428L643.396 173.736C644.14 173.684 644.846 173.479 645.475 173.12L645.808 173.723C646.347 173.415 646.847 173.031 647.258 172.556L646.745 172.095C647.22 171.569 647.579 170.928 647.784 170.197L648.451 170.389C648.592 169.889 648.669 169.377 648.669 168.877C648.669 168.761 648.669 168.659 648.657 168.543L647.964 168.582ZM645.936 169.671C645.564 170.966 644.384 171.813 643.101 171.813C642.831 171.813 642.562 171.774 642.292 171.697C640.997 171.325 640.15 170.146 640.15 168.864C640.15 168.594 640.188 168.325 640.265 168.056C640.637 166.761 641.818 165.915 643.101 165.915C643.37 165.915 643.64 165.953 643.909 166.03C645.205 166.402 646.052 167.582 646.052 168.864C646.052 169.133 646.013 169.402 645.936 169.671Z" stroke="#884A39" stroke-width="0.5407" stroke-miterlimit="10"/>
<path d="M334.135 71.7312C334.135 74.7954 331.646 77.2827 328.579 77.2827C325.513 77.2827 323.023 74.7954 323.023 71.7312C323.023 68.6669 325.513 66.1796 328.579 66.1796C331.646 66.1796 334.135 68.6669 334.135 71.7312Z" stroke="#884A39" stroke-width="0.5407" stroke-miterlimit="10"/>
<path d="M569.85 79.9878C569.85 81.8981 568.297 83.4495 566.385 83.4495C564.473 83.4495 562.921 81.8981 562.921 79.9878C562.921 78.0774 564.473 76.5261 566.385 76.5261C568.297 76.5261 569.85 78.0774 569.85 79.9878Z" stroke="#884A39" stroke-width="0.5407" stroke-miterlimit="10"/>
<path d="M586.53 159.056C586.53 160.966 584.978 162.517 583.066 162.517C581.154 162.517 579.602 160.966 579.602 159.056C579.602 157.145 581.154 155.594 583.066 155.594C584.978 155.594 586.53 157.145 586.53 159.056Z" stroke="#884A39" stroke-width="0.5407" stroke-miterlimit="10"/>
<path d="M290.779 8.76641C290.779 10.6768 289.227 12.2281 287.315 12.2281C285.403 12.2281 283.851 10.6768 283.851 8.76641C283.851 6.85606 285.403 5.3047 287.315 5.3047C289.227 5.3047 290.779 6.84324 290.779 8.76641Z" stroke="#884A39" stroke-width="0.5407" stroke-miterlimit="10"/>
<path d="M161.123 111.964C161.123 113.874 159.57 115.425 157.659 115.425C155.747 115.425 154.194 113.874 154.194 111.964C154.194 110.053 155.747 108.502 157.659 108.502C159.57 108.502 161.123 110.053 161.123 111.964Z" stroke="#884A39" stroke-width="0.5407" stroke-miterlimit="10"/>
<path d="M370.779 -1.51632V5.17632" stroke="#884A39" stroke-width="0.5407" stroke-miterlimit="10"/>
<path d="M374.14 1.8302H367.43" stroke="#884A39" stroke-width="0.5407" stroke-miterlimit="10"/>
<path d="M282.899 60.4739V67.1794" stroke="#884A39" stroke-width="0.5407" stroke-miterlimit="10"/>
<path d="M286.249 63.8204H279.538" stroke="#884A39" stroke-width="0.5407" stroke-miterlimit="10"/>
<path d="M132.689 66.8079V73.5133" stroke="#884A39" stroke-width="0.5407" stroke-miterlimit="10"/>
<path d="M136.051 70.1544H129.341" stroke="#884A39" stroke-width="0.5407" stroke-miterlimit="10"/>
</g>
</g>
<path opacity="0.1" d="M38.0497 125.754C26.9986 126.507 16.4354 125.511 5.60386 123.035C3.94497 122.646 2.18852 122.136 1.04193 120.728C-0.665745 118.592 -0.153453 114.974 1.7006 112.958C3.53025 110.943 6.31133 110.36 8.87285 110.628C10.5073 110.798 12.1906 111.307 13.7763 110.798C15.7523 110.166 17.0697 108.151 18.3871 106.378C19.7044 104.63 21.5097 102.882 23.5589 103.149C25.0958 103.343 26.2912 104.63 27.6573 105.456C29.0234 106.257 30.9995 106.354 31.7801 104.873C33.4634 101.692 31.0971 93 39.7086 93C52.1259 93 50.1011 101.765 51.5892 103.635C53.858 106.451 57.8832 105.844 61.1766 104.873C64.47 103.926 68.3732 103.004 70.9103 105.529C73.1059 107.714 73.3255 111.72 75.6674 113.711C78.1558 115.848 81.6931 114.707 84.6937 113.76C87.7188 112.813 91.5976 112.449 93.3297 115.362C94.7934 117.79 93.6956 121.335 91.622 123.108C89.5484 124.88 86.7917 125.317 84.157 125.511C67.1534 126.628 51.7112 124.832 38.0497 125.754Z" fill="#9B5C4B"/>
<path opacity="0.1" d="M711.747 33.2417C720.452 33.2417 738.366 49.6243 712.793 52.2572C687.178 54.9319 648.881 53.72 633.394 53.7617C608.114 53.8453 601.836 52.7587 602.003 41.7674C602.129 35.4149 605.352 31.3193 618.703 29.6476C632.557 27.8923 625.484 11.5098 642.393 12.0113C656.833 12.4292 658.298 33.8686 671.482 28.6446C684.667 23.3788 681.904 37.7135 691.573 40.3464C702.204 43.2301 703.041 33.2417 711.747 33.2417Z" fill="#9B5C4B"/>
<defs>
<linearGradient id="paint0_linear_3341_13729" x1="360.906" y1="-109" x2="360.906" y2="277.5" gradientUnits="userSpaceOnUse">
<stop stop-color="#773E2E" stop-opacity="0.17"/>
<stop offset="1" stop-color="#773E2E" stop-opacity="0"/>
</linearGradient>
<clipPath id="clip0_3341_13729">
<rect width="555" height="341" fill="white" transform="translate(99)"/>
</clipPath>
</defs>
</svg>
